<svg xmlns="http://www.w3.org/2000/svg" viewBox="0 0 180 180">
  <defs>
    <linearGradient id="g" x1="0" y1="0" x2="1" y2="1">
      <stop offset="0" stop-color="#4ea1ff"/>
      <stop offset="1" stop-color="#7c5cff"/>
    </linearGradient>
  </defs>
  <rect width="180" height="180" rx="40" fill="url(#g)"/>
  <g fill="#fff">
    <path d="M45 108c0-4 2-10 5-17l7-16c2-5 6-8 11-8h44c5 0 9 3 11 8l7 16c3 7 5 13 5 17v22c0 3-2 5-5 5h-8c-3 0-5-2-5-5v-5H58v5c0 3-2 5-5 5h-8c-3 0-5-2-5-5v-22z"/>
    <circle cx="63" cy="106" r="7" fill="#4ea1ff"/>
    <circle cx="117" cy="106" r="7" fill="#4ea1ff"/>
    <rect x="60" y="72" width="60" height="14" rx="4" fill="#4ea1ff" opacity="0.5"/>
  </g>
  <g stroke="#fff" stroke-width="6" stroke-linecap="round" fill="none">
    <path d="M40 48h30M55 34h40M110 48h30" opacity="0.9"/>
  </g>
</svg>
